<svg id="Layer_1" data-name="Layer 1" xmlns="http://www.w3.org/2000/svg" xmlns:xlink="http://www.w3.org/1999/xlink" viewBox="0 0 500 500"><defs><style>.cls-1{fill:none;}.cls-2,.cls-8{fill:#161616;}.cls-2{opacity:0.25;}.cls-3{fill:#fbc69f;}.cls-4{fill:#5c9cff;}.cls-5{fill:#000d17;}.cls-6{fill:#efa695;}.cls-7{fill:#0092b9;}.cls-9{fill:#e0e990;}.cls-10{fill:#006e8b;}.cls-11{opacity:0.42;}.cls-12{isolation:isolate;}.cls-13{fill:#170000;}.cls-14{fill:#ffde60;}.cls-15{fill:#ff8f00;}.cls-16{fill:#fff;}.cls-17{opacity:0.68;fill:url(#linear-gradient);}.cls-18{clip-path:url(#clip-path);}.cls-19{clip-path:url(#clip-path-2);}.cls-20{clip-path:url(#clip-path-3);}</style><linearGradient id="linear-gradient" x1="127.15" y1="150.51" x2="114.45" y2="134.83" gradientUnits="userSpaceOnUse"><stop offset="0" stop-color="#fbc69f"/><stop offset="0.23" stop-color="#fbc39c"/><stop offset="0.38" stop-color="#fbbb93"/><stop offset="0.52" stop-color="#fcac83"/><stop offset="0.65" stop-color="#fc986d"/><stop offset="0.77" stop-color="#fd7d51"/><stop offset="0.88" stop-color="#fe5c2e"/><stop offset="0.99" stop-color="#ff3606"/><stop offset="1" stop-color="#ff3100"/></linearGradient><clipPath id="clip-path"><polygon class="cls-1" points="198.79 285.99 200.41 221.12 256.35 229.87 254.73 294.74 198.79 285.99"/></clipPath><clipPath id="clip-path-2"><polygon class="cls-1" points="220.63 275.37 221.58 237.42 235.23 239.56 234.28 277.5 220.63 275.37"/></clipPath><clipPath id="clip-path-3"><polygon class="cls-1" points="211.68 310.12 213.6 296.5 241.81 300.63 239.88 314.25 211.68 310.12"/></clipPath></defs><title>ilus2</title><ellipse class="cls-2" cx="151.14" cy="447.17" rx="43.26" ry="16.83"/><path class="cls-3" d="M121.53,323.75c-.43-1.59-6-3.48-5.75-8.68s-.38-20.37-.38-20.37l-10,1s-.6,10.39.68,15.16,6.31,17.06,9.49,16.21A17,17,0,0,0,121.53,323.75Z"/><path class="cls-4" d="M122.07,208c3.13.48,8.54,4.78,7.57,7.79-3.9,12.09-12.8,38.78-13.15,42.4-1.23,12.75-.55,25.89-.35,38.78a5.11,5.11,0,0,1-5.06,5.16h-.32a5.1,5.1,0,0,1-5.11-4.44c-1.72-13.47-4.79-26.56-2.92-40.26,1.23-9,4.56-19,7.56-27.59.45-1.29,4.59-12.25,6.77-18.71.79-2.35,5.91-2.41,8.37-2Z"/><path class="cls-3" d="M170.89,118.25c-.61,1.53-6.42,2.75-6.73,8s-2.75,20.18-2.75,20.18l-9.79-2.14s.62-10.4,2.45-15,8.26-16.21,11.32-15A17,17,0,0,1,170.89,118.25Z"/><path class="cls-5" d="M127.14,438.42l19.38-7.66s7.62-41.64,7.35-46.57S150.55,323.35,152,320s.47-14,.47-14l-34.25-.61s7.45,45.77,9.81,58.84a224.1,224.1,0,0,1,3,24.57Z"/><polygon class="cls-6" points="108.48 190.35 119.71 214.46 138.42 210.25 131.73 196.62 107.89 187.72 108.48 190.35"/><path class="cls-7" d="M115.36,207.35s-2.51,44.67-1.35,66,3.44,32.8,3.44,32.8l38,1.22s.48-21.46-.24-34.62-13.1-58.65-16.56-61.76-22.83-5.35-20.09-5.5A5.73,5.73,0,0,0,115.36,207.35Z"/><path class="cls-3" d="M114.19,190.63c8.55,6.86,19.73,8.58,31,5.63,2-.52,8.39-1.48,10.1-2.58,15.92-10.25,7.3-28.2,3.74-33.74s-8.51-10.19-10.29-13-19-25-19-25L98.5,142,84.27,174.6c-.1.24,1.53,2.09,1.69,2.3l4.09,5.57,5.28,7.16c1.48,2,2.53,4.49,4.73,5.84a14,14,0,0,0,7,2,4.13,4.13,0,0,0,1.26-.13C109.21,197.05,114.86,191.17,114.19,190.63Z"/><path class="cls-8" d="M149.08,177.94s1-4.44,5.7-9.39,5.85-4.37,5.85-4.37"/><circle class="cls-8" cx="136.95" cy="150.7" r="3.54"/><path class="cls-8" d="M132,155.56c-.67-2.78-2.13-7.07.49-9.88.95-1,3.62-2.65,4.42-3.74-1.34.83-4.24,2-5.62,2.75a8.22,8.22,0,0,0-3,2.41C126.12,150.17,130.26,153.88,132,155.56Z"/><path class="cls-4" d="M130.06,232.49c-3-1-7.6-6.17-6.13-9,5.91-11.25,19.24-36,20.21-39.53,3.39-12.35,5-25.41,7-38.15a5.09,5.09,0,0,1,5.86-4.21l.32.05a5.1,5.1,0,0,1,4.28,5.24c-.61,13.57.18,27-4,40.17-2.75,8.65-7.74,18-12.16,25.9-.66,1.19-6.61,11.28-9.87,17.27-1.18,2.18-6.24,1.37-8.59.57C126.89,230.82,130.11,232.51,130.06,232.49Z"/><polygon class="cls-9" points="178.63 93.3 285.67 103.37 433.87 90.2 331.77 80.32 178.63 93.3"/><path class="cls-7" d="M169.61,439s7.76-1.85,8,2.4-5.74,10.25-15.16,10.77-31.46.29-34.75-2.37-.85-15.57-.85-15.57,9.85.26,12.4-.59,7.69-6.19,7.69-6.19S155.48,439.76,169.61,439Z"/><polygon class="cls-7" points="285.67 103.37 285.67 144.54 178.63 132.84 178.63 93.3 285.67 103.37"/><polygon class="cls-10" points="285.67 103.37 433.87 90.2 433.87 124.78 285.67 144.54 285.67 103.37"/><g class="cls-11"><g class="cls-12"><path class="cls-13" d="M371,66.08a12.15,12.15,0,0,0-5.64-4.74l.43-1.36c.25-.77.49-1.55.74-2.32a12.16,12.16,0,0,1,5.64,4.74,5.19,5.19,0,0,1,.63,4.21l-1.17,3.68A5.19,5.19,0,0,0,371,66.08Z"/><path class="cls-13" d="M357.42,60c-3.24.34-5.41,1.86-6.06,3.9l1.18-3.68c.65-2,2.81-3.56,6-3.9a15.66,15.66,0,0,1,7.89,1.38l-1.17,3.68A15.68,15.68,0,0,0,357.42,60Z"/><path class="cls-13" d="M380.36,80.22c1.23-3.85.81-8.26-1.51-12.82L380,63.72c2.33,4.57,2.74,9,1.51,12.82Z"/><path class="cls-13" d="M372.75,66.61l-1.17,3.68c-.65,2-2.82,3.56-6.06,3.9-5.23.55-11.29-2.19-13.53-6.12a5.23,5.23,0,0,1-.63-4.21l1.18-3.68a5.22,5.22,0,0,0,.62,4.21c2.24,3.93,8.31,6.67,13.54,6.12C369.94,70.17,372.1,68.65,372.75,66.61Z"/><path class="cls-13" d="M358.59,56.28c5.24-.55,11.3,2.19,13.53,6.12s-.19,7.56-5.42,8.11-11.3-2.19-13.54-6.12S353.36,56.83,358.59,56.28Z"/><path class="cls-13" d="M314,59.1l1.17-3.68c-.12.38-.23.77-.32,1.16l-1.17,3.68A11.72,11.72,0,0,1,314,59.1Z"/><polygon class="cls-13" points="319.72 56.06 318.55 59.74 313.63 60.26 314.8 56.58 319.72 56.06"/><polygon class="cls-13" points="311.77 62.28 310.6 65.96 306.54 66.38 307.71 62.7 311.77 62.28"/><polygon class="cls-13" points="307.71 62.7 306.54 66.38 303.65 61.31 304.82 57.63 307.71 62.7"/><polygon class="cls-13" points="333.61 80.45 332.44 84.13 318.55 59.74 319.72 56.06 333.61 80.45"/><polygon class="cls-13" points="320.46 77.52 319.29 81.2 310.6 65.96 311.77 62.28 320.46 77.52"/><polygon class="cls-13" points="333.61 80.45 332.44 84.13 327.53 84.65 328.7 80.97 333.61 80.45"/><polygon class="cls-13" points="320.46 77.52 319.29 81.2 315.23 81.63 316.4 77.95 320.46 77.52"/><path class="cls-13" d="M381.53,76.54l-1.17,3.68c-2.13,6.7-9.24,11.69-19.89,12.81-10.06,1.06-21.06-1.59-29.92-6.55-1-.58-2.05-1.19-3-1.83L328.7,81c1,.64,2,1.25,3,1.83,8.86,5,19.86,7.61,29.93,6.55C372.29,88.23,379.4,83.24,381.53,76.54Z"/><polygon class="cls-13" points="331.72 82.8 330.55 86.48 328.69 86.68 329.86 83 331.72 82.8"/><polygon class="cls-13" points="317.56 79.98 316.38 83.66 315.23 81.63 316.4 77.95 317.56 79.98"/><path class="cls-13" d="M335,42.6c17.2-1.8,37.1,7.19,44.46,20.11.2.34.38.68.55,1,6.38,12.52-1.63,23.87-18.37,25.63-10.07,1.06-21.07-1.58-29.93-6.55-1-.58-2-1.19-3-1.83l4.91-.52L319.72,56.06l-4.92.52C316.46,49.3,323.77,43.79,335,42.6ZM366.7,70.51c5.23-.55,7.66-4.18,5.42-8.11s-8.29-6.67-13.53-6.12-7.67,4.18-5.43,8.11,8.31,6.67,13.54,6.12"/><polygon class="cls-13" points="319.72 56.06 333.61 80.45 328.7 80.97 318.71 82.02 317.56 79.98 316.4 77.95 320.46 77.52 311.77 62.28 307.71 62.7 304.82 57.63 314.8 56.58 319.72 56.06"/><polygon class="cls-13" points="328.7 80.97 327.53 84.65 317.54 85.7 318.71 82.02 328.7 80.97"/><polygon class="cls-13" points="319.87 84.05 318.7 87.73 316.38 83.66 317.56 79.98 319.87 84.05"/><polygon class="cls-13" points="318.71 82.02 317.54 85.7 316.38 83.66 317.56 79.98 318.71 82.02"/><path class="cls-13" d="M382.69,78.57l-1.17,3.68c-2.14,6.7-9.25,11.7-19.89,12.81-11.24,1.19-23.65-2.25-32.95-8.38L329.86,83c9.29,6.13,21.7,9.57,32.94,8.39C373.44,90.27,380.56,85.27,382.69,78.57Z"/><path class="cls-13" d="M380,63.72c.21.34.41.68.61,1C388,77.64,380,89.58,362.8,91.39c-11.24,1.18-23.65-2.26-32.94-8.39l1.86-.2c8.86,5,19.86,7.61,29.93,6.55C378.39,87.59,386.4,76.24,380,63.72Z"/><polygon class="cls-13" points="329.86 83 328.69 86.68 318.7 87.73 319.87 84.05 329.86 83"/><path class="cls-13" d="M317.56,80l1.15,2,10-1c1,.64,2,1.25,3,1.83l-1.86.2-10,1Z"/><polygon class="cls-13" points="316.4 77.95 315.23 81.63 274.6 85.9 275.77 82.22 316.4 77.95"/><polygon class="cls-13" points="275.77 82.22 274.6 85.9 259.6 81.01 260.77 77.33 275.77 82.22"/><polygon class="cls-13" points="261.93 79.37 260.75 83.05 259.6 81.01 260.77 77.33 261.93 79.37"/><polygon class="cls-13" points="275.77 82.22 316.4 77.95 317.56 79.98 276.93 84.25 261.93 79.37 260.77 77.33 275.77 82.22"/><polygon class="cls-13" points="276.93 84.25 275.76 87.93 260.75 83.05 261.93 79.37 276.93 84.25"/><polygon class="cls-13" points="317.56 79.98 316.38 83.66 275.76 87.93 276.93 84.25 317.56 79.98"/><polygon class="cls-13" points="253.56 78.09 252.39 81.77 246.62 82.38 247.79 78.7 253.56 78.09"/><polygon class="cls-13" points="257.03 84.19 255.86 87.87 252.39 81.77 253.56 78.09 257.03 84.19"/><polygon class="cls-13" points="254.72 80.13 253.55 83.8 247.78 84.41 248.95 80.73 254.72 80.13"/><polygon class="cls-13" points="264.24 83.43 263.07 87.11 255.86 87.87 257.03 84.19 264.24 83.43"/><polygon class="cls-13" points="258.19 86.22 257.02 89.9 255.86 87.87 257.03 84.19 258.19 86.22"/><polygon class="cls-13" points="258.19 86.22 257.03 84.19 264.24 83.43 265.4 85.47 258.19 86.22"/><polygon class="cls-13" points="265.4 85.47 264.23 89.14 257.02 89.9 258.19 86.22 265.4 85.47"/><polygon class="cls-13" points="229.65 80.69 228.48 84.37 225.86 83.48 227.03 79.8 229.65 80.69"/><polygon class="cls-13" points="244.06 85.55 242.88 89.23 228.48 84.37 229.65 80.69 244.06 85.55"/><polygon class="cls-13" points="247.79 78.7 246.62 82.38 242.88 89.23 244.06 85.55 247.79 78.7"/><polygon class="cls-13" points="311.77 62.28 320.46 77.52 316.4 77.95 275.77 82.22 260.77 77.33 261.93 79.37 264.24 83.43 257.03 84.19 253.56 78.09 247.79 78.7 244.06 85.55 229.65 80.69 227.03 79.8 239.69 69.85 307.71 62.7 311.77 62.28"/><polygon class="cls-13" points="248.95 80.73 247.78 84.41 244.04 91.27 245.22 87.59 248.95 80.73"/><polygon class="cls-13" points="245.22 87.59 244.04 91.27 227.02 85.52 228.19 81.84 245.22 87.59"/><polygon class="cls-13" points="253.56 78.09 254.72 80.13 248.95 80.73 245.22 87.59 228.19 81.84 229.65 80.69 244.06 85.55 247.79 78.7 253.56 78.09"/></g></g><g class="cls-12"><path class="cls-14" d="M371,64.7A12.18,12.18,0,0,0,365.31,60l.14-.43.14-.46.15-.47.16-.48.15-.49.15-.47.15-.45.13-.43A12.18,12.18,0,0,1,372.13,61a5.2,5.2,0,0,1,.62,4.2l-1.17,3.68A5.2,5.2,0,0,0,371,64.7Z"/><path class="cls-14" d="M357.42,58.57c-3.24.34-5.4,1.87-6.05,3.91l1.17-3.68c.65-2,2.81-3.56,6-3.9a15.55,15.55,0,0,1,7.89,1.38L365.31,60A15.69,15.69,0,0,0,357.42,58.57Z"/><path class="cls-15" d="M380.36,78.83c1.23-3.84.81-8.25-1.51-12.81L380,62.34c2.33,4.56,2.74,9,1.51,12.81Z"/><path class="cls-16" d="M372.75,65.22l-1.17,3.68c-.65,2-2.81,3.56-6.06,3.91-5.23.54-11.29-2.2-13.53-6.12a5.23,5.23,0,0,1-.62-4.21l1.17-3.68a5.19,5.19,0,0,0,.63,4.21c2.23,3.93,8.3,6.67,13.53,6.12C369.94,68.79,372.1,67.26,372.75,65.22Z"/><path class="cls-16" d="M358.59,54.9c5.24-.55,11.3,2.19,13.54,6.12s-.2,7.56-5.43,8.11S355.4,66.94,353.17,63,353.36,55.45,358.59,54.9Z"/><path class="cls-14" d="M314,57.71,315.12,54c-.12.38-.23.76-.32,1.15l-1.17,3.68C313.72,58.48,313.83,58.09,314,57.71Z"/><polygon class="cls-14" points="319.72 54.67 318.55 58.35 313.63 58.87 314.81 55.19 319.72 54.67"/><polygon class="cls-14" points="311.78 60.9 310.61 64.58 306.54 65 307.71 61.33 311.78 60.9"/><polygon class="cls-14" points="307.71 61.33 306.54 65 303.65 59.92 304.82 56.24 307.71 61.33"/><polygon class="cls-14" points="333.61 79.07 332.44 82.75 318.55 58.35 319.72 54.67 333.61 79.07"/><polygon class="cls-14" points="320.46 76.14 319.29 79.81 310.61 64.58 311.78 60.9 320.46 76.14"/><polygon class="cls-14" points="333.61 79.07 332.44 82.75 327.53 83.26 328.7 79.58 333.61 79.07"/><polygon class="cls-14" points="320.46 76.14 319.29 79.81 315.23 80.24 316.4 76.56 320.46 76.14"/><path class="cls-14" d="M381.53,75.15l-1.17,3.68c-2.13,6.7-9.24,11.69-19.89,12.81-10.06,1.06-21.06-1.58-29.92-6.55-1-.58-2.05-1.19-3-1.83l1.17-3.68c1,.64,2,1.26,3,1.84,8.86,5,19.86,7.6,29.93,6.55C372.29,86.85,379.4,81.85,381.53,75.15Z"/><polygon class="cls-15" points="331.72 81.42 330.55 85.09 328.68 85.29 329.86 81.61 331.72 81.42"/><polygon class="cls-14" points="317.56 78.6 316.38 82.28 315.23 80.24 316.4 76.56 317.56 78.6"/><polygon class="cls-14" points="328.7 79.58 327.53 83.26 317.54 84.31 318.71 80.63 328.7 79.58"/><path class="cls-15" d="M382.69,77.19l-1.17,3.68c-2.13,6.7-9.25,11.69-19.89,12.81-11.24,1.18-23.65-2.26-32.95-8.39l1.17-3.68c9.3,6.13,21.71,9.57,32.95,8.39C373.45,88.88,380.56,83.89,382.69,77.19Z"/><path class="cls-15" d="M380,62.34c.21.33.41.67.61,1C388,76.26,380,88.19,362.8,90c-11.24,1.18-23.65-2.26-32.95-8.39l1.87-.19c8.86,5,19.86,7.6,29.93,6.55C378.39,86.21,386.4,74.85,380,62.34Z"/><path class="cls-14" d="M335,41.22c17.2-1.81,37.11,7.19,44.46,20.1.2.34.38.68.55,1,6.38,12.51-1.63,23.87-18.37,25.63-10.07,1-21.07-1.59-29.93-6.55-1-.58-2-1.2-3-1.84l4.91-.51L319.72,54.68l-4.92.51C316.46,47.91,323.77,42.4,335,41.22ZM366.7,69.13c5.23-.55,7.66-4.19,5.43-8.11s-8.3-6.67-13.54-6.12-7.66,4.18-5.42,8.11,8.3,6.67,13.53,6.12"/><polygon class="cls-14" points="319.72 54.67 333.61 79.07 328.7 79.58 318.71 80.63 317.56 78.6 316.4 76.56 320.46 76.14 311.78 60.9 307.71 61.33 304.82 56.24 314.81 55.19 319.72 54.67"/><polygon class="cls-15" points="319.87 82.66 318.7 86.34 316.38 82.28 317.56 78.6 319.87 82.66"/><polygon class="cls-14" points="318.71 80.63 317.54 84.31 316.38 82.28 317.56 78.6 318.71 80.63"/><polygon class="cls-15" points="329.86 81.61 328.68 85.29 318.7 86.34 319.87 82.66 329.86 81.61"/><path class="cls-15" d="M317.56,78.6l1.15,2,10-1c1,.64,2,1.26,3,1.84l-1.87.19-10,1Z"/><polygon class="cls-14" points="316.4 76.56 315.23 80.24 274.6 84.51 275.77 80.83 316.4 76.56"/><polygon class="cls-14" points="275.77 80.83 274.6 84.51 259.6 79.63 260.77 75.95 275.77 80.83"/><polygon class="cls-15" points="261.93 77.98 260.75 81.66 259.6 79.63 260.77 75.95 261.93 77.98"/><polygon class="cls-15" points="275.77 80.83 316.4 76.56 317.56 78.6 276.93 82.87 261.93 77.98 260.77 75.95 275.77 80.83"/><polygon class="cls-15" points="276.93 82.87 275.76 86.55 260.75 81.66 261.93 77.98 276.93 82.87"/><polygon class="cls-15" points="317.56 78.6 316.38 82.28 275.76 86.55 276.93 82.87 317.56 78.6"/><polygon class="cls-14" points="253.56 76.7 252.39 80.38 246.62 80.99 247.79 77.31 253.56 76.7"/><polygon class="cls-14" points="257.03 82.8 255.86 86.48 252.39 80.38 253.56 76.7 257.03 82.8"/><polygon class="cls-15" points="254.72 78.74 253.55 82.42 247.78 83.02 248.95 79.35 254.72 78.74"/><polygon class="cls-14" points="264.24 82.05 263.07 85.72 255.86 86.48 257.03 82.8 264.24 82.05"/><polygon class="cls-15" points="258.19 84.84 257.02 88.52 255.86 86.48 257.03 82.8 258.19 84.84"/><polygon class="cls-15" points="258.19 84.84 257.03 82.8 264.24 82.05 265.4 84.08 258.19 84.84"/><polygon class="cls-15" points="265.4 84.08 264.23 87.76 257.02 88.52 258.19 84.84 265.4 84.08"/><polygon class="cls-14" points="229.65 79.3 228.48 82.98 225.86 82.1 227.03 78.42 229.65 79.3"/><polygon class="cls-14" points="244.06 84.17 242.88 87.84 228.48 82.98 229.65 79.3 244.06 84.17"/><polygon class="cls-14" points="247.79 77.31 246.62 80.99 242.88 87.84 244.06 84.17 247.79 77.31"/><polygon class="cls-14" points="311.78 60.9 320.46 76.14 316.4 76.56 275.77 80.83 260.77 75.95 261.93 77.98 264.24 82.05 257.03 82.8 253.56 76.7 247.79 77.31 244.06 84.17 229.65 79.3 227.03 78.42 239.7 68.47 307.71 61.33 311.78 60.9"/><polygon class="cls-15" points="248.95 79.35 247.78 83.02 244.04 89.88 245.22 86.2 248.95 79.35"/><polygon class="cls-15" points="245.22 86.2 244.04 89.88 227.02 84.13 228.19 80.45 245.22 86.2"/><polygon class="cls-15" points="253.56 76.7 254.72 78.74 248.95 79.35 245.22 86.2 228.19 80.45 229.65 79.3 244.06 84.17 247.79 77.31 253.56 76.7"/></g><polygon class="cls-3" points="132.57 150.78 141.17 147.83 133.77 144.99 132.57 150.78"/><polygon class="cls-17" points="101.72 145.14 131.73 124.32 140.92 139.36 108.07 158.8 101.72 145.14"/><path class="cls-8" d="M104.61,168.94a4.29,4.29,0,0,1,1.67.56,19.14,19.14,0,0,1,3.27,3.29,2.52,2.52,0,0,0,4.43-1.35,25,25,0,0,0,0-5.67c-.69-5.06-11.39-17.27-7.51-22.1,3.26-4,27.76-17.7,30.13-23.15,1.4-3.2-1.56-11-4.22-17a2.51,2.51,0,0,0-4.64.17,12.61,12.61,0,0,1-7,7.42c-15.08,6.49-41.28,3.71-48.56,21.8-5.87,14.58.17,30.8,8.15,43.21,12.48,19.39,24.86,26.24,26.42,24.51,4.73-5.29.88-5.43-3.93-8.35-5.69-3.47-9.52-9.52-6.83-16.33C97.31,172.7,101,168.52,104.61,168.94Z"/><path class="cls-4" d="M87.85,153s.85,7.31-2.8,7.74S87.85,153,87.85,153Z"/><path class="cls-4" d="M94.65,154.42s9,14.08.17,13.62C86.42,167.59,94.65,154.42,94.65,154.42Z"/><ellipse class="cls-16" cx="85.81" cy="159.35" rx="0.66" ry="0.4" transform="translate(-95.16 161.18) rotate(-62.28)"/><path class="cls-16" d="M96.56,162a1.79,1.79,0,0,1,.57,2.32c-.71,1.5,0,2.75.48,1.31S98.45,162.23,96.56,162Z"/><path class="cls-10" d="M141.56,432.3l-1.1,1S145,437.49,150,439s8,.51,9.09,0a2.52,2.52,0,0,0,1.32-1.4l0,0a30.67,30.67,0,0,1-13.44-10.15A47.7,47.7,0,0,1,141.56,432.3Z"/><polygon class="cls-14" points="285.67 436.03 178.63 419.56 178.63 132.84 285.67 144.54 285.67 436.03"/><g class="cls-12"><g class="cls-18"><path class="cls-15" d="M228.38,225.49c-15.45-2.41-28.33,10.15-28.78,28.07s11.71,34.38,27.16,36.8,28.33-10.15,28.78-28.05-11.71-34.4-27.16-36.82"/></g></g><g class="cls-12"><g class="cls-19"><polyline points="235.23 239.56 221.58 237.42 220.63 275.37 234.28 277.5 234.75 258.99 234.87 253.89 234.99 249.24 235.1 244.84 235.23 239.56"/></g></g><polygon class="cls-5" points="433.87 124.78 433.87 384.25 285.67 436.03 285.67 144.54 433.87 124.78"/><g class="cls-12"><g class="cls-20"><path class="cls-15" d="M214.38,308a1.13,1.13,0,0,0-1.28,1.07,1.15,1.15,0,0,0,.92,1.38,1.25,1.25,0,0,0,.36-2.45m1.86-11.13a4.63,4.63,0,0,0-2.75.39l.27,1.31a3.19,3.19,0,0,1,2-.35,1.63,1.63,0,0,1,1.52,1.95,4.44,4.44,0,0,1-1.68,2.49,4.72,4.72,0,0,0-1.62,3.22l0,.51,1.44.21,0-.51a4,4,0,0,1,1.46-2.72,5.52,5.52,0,0,0,2.07-3.17,2.85,2.85,0,0,0-2.68-3.33"/><path class="cls-15" d="M221.87,309.11a1.25,1.25,0,0,0-.36,2.45,1.12,1.12,0,0,0,1.28-1.06,1.13,1.13,0,0,0-.92-1.39M223.73,298a4.72,4.72,0,0,0-2.75.4l.27,1.3a3.22,3.22,0,0,1,2-.34,1.62,1.62,0,0,1,1.51,1.94,4.46,4.46,0,0,1-1.67,2.5,4.63,4.63,0,0,0-1.62,3.21l0,.52,1.44.21,0-.51a4.07,4.07,0,0,1,1.46-2.73,5.41,5.41,0,0,0,2.07-3.17,2.84,2.84,0,0,0-2.68-3.33"/><path class="cls-15" d="M229.37,310.21a1.25,1.25,0,0,0-.36,2.45,1.11,1.11,0,0,0,1.27-1.06,1.12,1.12,0,0,0-.91-1.39m1.86-11.13a4.54,4.54,0,0,0-2.75.4l.26,1.3a3.15,3.15,0,0,1,2-.34,1.61,1.61,0,0,1,1.52,1.94,4.44,4.44,0,0,1-1.68,2.49,4.68,4.68,0,0,0-1.62,3.22l0,.51,1.45.21,0-.51a4,4,0,0,1,1.47-2.72,5.5,5.5,0,0,0,2.06-3.17,2.84,2.84,0,0,0-2.67-3.33"/><path class="cls-15" d="M236.86,311.31a1.12,1.12,0,0,0-1.28,1.06,1.14,1.14,0,0,0,.92,1.38,1.24,1.24,0,0,0,.36-2.44m1.86-11.14a4.72,4.72,0,0,0-2.75.4l.27,1.31a3.22,3.22,0,0,1,2-.35,1.62,1.62,0,0,1,1.51,1.94A4.46,4.46,0,0,1,238,306a4.72,4.72,0,0,0-1.62,3.21l0,.52,1.44.21.05-.51a4,4,0,0,1,1.46-2.73,5.45,5.45,0,0,0,2.07-3.17,2.84,2.84,0,0,0-2.68-3.33"/></g></g><rect class="cls-14" x="302.73" y="232.41" width="9.17" height="51.03"/></svg>