<svg id="Layer_Backround" data-name="Layer Backround" xmlns="http://www.w3.org/2000/svg" viewBox="0 0 460.8 259.2"><defs><style>.cls-1{fill:#1481c6;}.cls-1,.cls-2,.cls-5{fill-rule:evenodd;}.cls-2,.cls-3{fill:#fff;}.cls-4{fill:#e5e5e5;}.cls-5{fill:#f4e53f;}</style></defs><title>l3-b</title><path class="cls-1" d="M460.8,259.2V134.71c-170.42-48.95-263,72.94-346,45.76C51.73,159.82,23.73,78.14,42.8-.88L0,0V259.2Z"/><path class="cls-2" d="M167.27,191.21c.29,0-.22,1.19.59,2s1.94.28,1.94.54-1.16-.25-2,.54-.3,2-.58,2,.2-1.17-.59-2-2-.28-2-.54,1.17.27,1.94-.54S167,191.21,167.27,191.21Z"/><path class="cls-2" d="M21.94,126.21c.29,0-.21,1.19.59,2s1.95.28,1.95.54-1.16-.25-1.95.54-.3,2-.59,2,.21-1.17-.59-2-1.94-.28-1.94-.54,1.17.27,1.94-.54S21.65,126.21,21.94,126.21Z"/><path class="cls-2" d="M240.48,167.51c.55,0-.4,2.25,1.11,3.82s3.66.52,3.66,1-2.18-.48-3.67,1-.56,3.7-1.1,3.7.39-2.2-1.11-3.7-3.67-.53-3.67-1,2.2.5,3.66-1S239.93,167.51,240.48,167.51Z"/><path class="cls-2" d="M330.75,146c.55,0-.4,2.25,1.11,3.82s3.66.52,3.66,1-2.18-.48-3.67,1-.56,3.7-1.1,3.7.39-2.19-1.11-3.7-3.67-.52-3.67-1,2.2.5,3.66-1S330.2,146,330.75,146Z"/><rect class="cls-3" x="190.6" y="180.81" width="2.25" height="2.25"/><rect class="cls-4" x="291.11" y="151.06" width="2.25" height="2.25"/><rect class="cls-3" x="368.05" y="134.55" width="6.5" height="6.5"/><path class="cls-5" d="M0,145.12V129.6c17.62,6.8,30.81,13.33,39.22,20,14.38,11.43,33.12,19,56.56,22.21-21.2,1.53-42-4.65-63.56-16.71C21.49,149.1,10.42,146.38,0,145.12Z"/><path class="cls-2" d="M16.22,0h17.5Q7.11,131,95.78,171.83-6.66,135.13,16.22,0Z"/></svg>