<svg id="Layer_1" data-name="Layer 1" xmlns="http://www.w3.org/2000/svg" viewBox="0 0 319 138"><defs><style>.cls-1,.cls-2,.cls-3,.cls-6{fill:#fff;}.cls-1,.cls-2{stroke:#fff;stroke-miterlimit:10;}.cls-2{stroke-width:2px;}.cls-3{font-size:24.63px;font-family:SegoeUI-Semibold, Segoe UI;font-weight:600;letter-spacing:-0.03em;}.cls-4{letter-spacing:0em;}.cls-5{letter-spacing:0.03em;}</style></defs><title>pd_bwlogo</title><path class="cls-1" d="M154.79,87H130.93c-.48,3.24.08,5.73,1.68,7.49s4,2.63,7.37,2.63a20,20,0,0,0,10.88-3.35l-1.13,6.39a26.34,26.34,0,0,1-13.17,3q-7.73,0-11.28-4.77t-2-13.41a22.49,22.49,0,0,1,7.18-13.31,18.88,18.88,0,0,1,12.92-5.15q7.19,0,10.3,4.62T155.33,84Zm-6.67-5.6q.72-4.27-.84-6.65a5.61,5.61,0,0,0-5.05-2.37A9.17,9.17,0,0,0,136,74.88a14.1,14.1,0,0,0-4.08,6.53Z"/><path class="cls-2" d="M154.79,87H130.93c-.48,3.24.08,5.73,1.68,7.49s4,2.63,7.37,2.63a20,20,0,0,0,10.88-3.35l-1.13,6.39a26.34,26.34,0,0,1-13.17,3q-7.73,0-11.28-4.77t-2-13.41a22.49,22.49,0,0,1,7.18-13.31,18.88,18.88,0,0,1,12.92-5.15q7.19,0,10.3,4.62T155.33,84Zm-6.67-5.6q.72-4.27-.84-6.65a5.61,5.61,0,0,0-5.05-2.37A9.17,9.17,0,0,0,136,74.88a14.1,14.1,0,0,0-4.08,6.53Z"/><path class="cls-1" d="M189.47,102.36H179.42L168.78,85.54h-.13l-3,16.82h-8l9.13-51.81h8L169,83.39h.14l15.68-16h9.53L176.94,84.25Z"/><path class="cls-2" d="M189.47,102.36H179.42L168.78,85.54h-.13l-3,16.82h-8l9.13-51.81h8L169,83.39h.14l15.68-16h9.53L176.94,84.25Z"/><path class="cls-1" d="M265.29,67.36l-19.7,35H237l-6.71-35h8.61l3.44,24.47a21,21,0,0,1,.27,4.72h.1A29.36,29.36,0,0,1,244.48,92L257,67.36Z"/><path class="cls-2" d="M265.29,67.36l-19.7,35H237l-6.71-35h8.61l3.44,24.47a21,21,0,0,1,.27,4.72h.1A29.36,29.36,0,0,1,244.48,92L257,67.36Z"/><path class="cls-1" d="M296.12,87H272.27c-.48,3.24.08,5.73,1.67,7.49s4.05,2.63,7.38,2.63a20.07,20.07,0,0,0,10.88-3.35l-1.13,6.39a26.34,26.34,0,0,1-13.17,3q-7.72,0-11.28-4.77t-2-13.41a22.5,22.5,0,0,1,7.19-13.31,18.86,18.86,0,0,1,12.92-5.15q7.17,0,10.29,4.62T296.66,84Zm-6.66-5.6c.48-2.85.19-5.07-.85-6.65a5.59,5.59,0,0,0-5.05-2.37,9.19,9.19,0,0,0-6.23,2.49,14.08,14.08,0,0,0-4.07,6.53Z"/><path class="cls-2" d="M296.12,87H272.27c-.48,3.24.08,5.73,1.67,7.49s4.05,2.63,7.38,2.63a20.07,20.07,0,0,0,10.88-3.35l-1.13,6.39a26.34,26.34,0,0,1-13.17,3q-7.72,0-11.28-4.77t-2-13.41a22.5,22.5,0,0,1,7.19-13.31,18.86,18.86,0,0,1,12.92-5.15q7.17,0,10.29,4.62T296.66,84Zm-6.66-5.6c.48-2.85.19-5.07-.85-6.65a5.59,5.59,0,0,0-5.05-2.37,9.19,9.19,0,0,0-6.23,2.49,14.08,14.08,0,0,0-4.07,6.53Z"/><text class="cls-3" transform="matrix(0.98, 0, -0.17, 0.98, 232.94, 61.59)">P<tspan class="cls-4" x="13.56" y="0">o</tspan><tspan class="cls-5" x="28.27" y="0">r</tspan><tspan class="cls-4" x="38.1" y="0">tal</tspan></text><path class="cls-1" d="M213.93,67.36H201.51L199,72.7h12.13c1.85,0,3.94.16,5.09,1.77a5.89,5.89,0,0,1,.91,3.53c0,.28-.16,3.42-.2,3.42-2.07,0-4.13,0-6.19,0a26.38,26.38,0,0,0-7.26.58,16.55,16.55,0,0,0-6.25,3,13.14,13.14,0,0,0-4.41,8q-.82,4.62,1.61,7.42c1.62,1.86,4.15,2.8,7.59,2.8a13.62,13.62,0,0,0,11.74-5.68h.13l-1,4.86h7.69l4-22.76C226.17,70.89,222.77,67.36,213.93,67.36Zm1.33,20.85c-.75,4.31-5.22,9-9.75,9a5.93,5.93,0,0,1-4.28-1.43,4,4,0,0,1-1-3.62A5.82,5.82,0,0,1,203,87.85c1.86-1,4-.84,6-.84h6.41Z"/><path class="cls-2" d="M213.93,67.36H201.51L199,72.7h12.13c1.85,0,3.94.16,5.09,1.77a5.89,5.89,0,0,1,.91,3.53c0,.28-.16,3.42-.2,3.42-2.07,0-4.13,0-6.19,0a26.38,26.38,0,0,0-7.26.58,16.55,16.55,0,0,0-6.25,3,13.14,13.14,0,0,0-4.41,8q-.82,4.62,1.61,7.42c1.62,1.86,4.15,2.8,7.59,2.8a13.62,13.62,0,0,0,11.74-5.68h.13l-1,4.86h7.69l4-22.76C226.17,70.89,222.77,67.36,213.93,67.36Zm1.33,20.85c-.75,4.31-5.22,9-9.75,9a5.93,5.93,0,0,1-4.28-1.43,4,4,0,0,1-1-3.62A5.82,5.82,0,0,1,203,87.85c1.86-1,4-.84,6-.84h6.41Z"/><path class="cls-6" d="M120.58,76c-7.8,18.76-31.5,34-52.93,34-7.87,0-11.18-1.94-13.4-2.34,18.53-.75,45.06-8.59,59.66-30.65a33.82,33.82,0,0,0,2-3.14l.11-.2c.27-.48.51-1,.72-1.42a.67.67,0,0,0,.06-.12c6.26-13.19,0-25.21-13.75-29.44C119.66,45.69,127.47,59.48,120.58,76Z"/><polygon class="cls-6" points="74.78 50.6 32.33 94.96 35.09 100.52 74.78 51.88 74.78 50.6"/><path class="cls-6" d="M99.63,49.19a.11.11,0,0,0,0,0,25.79,25.79,0,0,0-8.37-5.25q.06-.12.12-.27c0-.06,0-.11.07-.17a38.16,38.16,0,0,0,1.33-4.93,7.43,7.43,0,0,1,.82-1.9,13.31,13.31,0,0,1,1.39-1.51,5.68,5.68,0,0,0,1.86-3.66s-2.67.46-2.84.49a37.12,37.12,0,0,0-12,3.94,14.78,14.78,0,0,0-5.32,5.61,14.25,14.25,0,0,0-.85,1.81,7.62,7.62,0,0,0-.16,4.79l0,.08A10.76,10.76,0,0,0,76,49.3l0,.16-1,.93c-1.12,1-38.53,45.22-38.53,45.22a22.56,22.56,0,0,1-10.11-8.55c-.27-.46-.53-.91-.77-1.37-.08-.17-.17-.34-.24-.51s0,0,0-.05c-5.47-11.6,2.83-24.27,11.62-31.87a61.32,61.32,0,0,1,11.88-8,63.74,63.74,0,0,0-15.6,10c-10.45,9.15-20.3,24.72-11.94,38.53a24.51,24.51,0,0,0,9.28,8.66c.69.39,1.41.74,2.13,1.08l2.22-2.7s0,0,0-.05a1.53,1.53,0,0,1,.16-.22L37,98.26l.24-.3-.07,0,.22-.15,0,0L76,52.15a3.17,3.17,0,0,1,1.33-.59l3.15.08h.68a1,1,0,0,1,.88.93c0,.23-1.59,4.19-1.59,4.19l-33.41,44.1a47,47,0,0,0,7,.51c7.18,0,14.56-2.47,21-5.39a65.13,65.13,0,0,0,17-11A42.11,42.11,0,0,0,102,72.13C106.22,63.33,105,55,99.63,49.19Zm-8.56-8.48a.84.84,0,0,0,0,.17l0,.1v0l0,.08a13.88,13.88,0,0,1-5.06,7.61,4.82,4.82,0,0,1-3.21.89l-2.18,0L78,49.48h0c-.41,0-.64-.47-.64-.47A6.67,6.67,0,0,1,76.88,48l0-.08c-.06-.23-.12-.48-.17-.74-.91-4.79,3.57-8.55,7-11,.2-.14.48-.27.66-.12s.09.43,0,.64l-.61,1.41a1.35,1.35,0,0,0-.13,1.12c.83,1.64,3-2.44,4.82-1.35.74.45-1.35,3.48-.58,4,.4.27,1.53-.45,1.89-.64l.09-.05a2.78,2.78,0,0,1,1-.52.66.66,0,0,1,.2,0S91.07,40.68,91.07,40.71Z"/></svg>