<svg id="Layer_1" data-name="Layer 1" xmlns="http://www.w3.org/2000/svg" xmlns:xlink="http://www.w3.org/1999/xlink" viewBox="0 0 500 500"><defs><style>.cls-1{fill:none;}.cls-2{fill:#ffde60;}.cls-3{fill:#e0e990;}.cls-4{fill:#edcfff;}.cls-5{fill:#0092b9;}.cls-6{fill:#006e8b;}.cls-7{opacity:0.42;}.cls-8{isolation:isolate;}.cls-9{fill:#170000;}.cls-10{fill:#ff8f00;}.cls-11{fill:#fff;}.cls-12{clip-path:url(#clip-path);}.cls-13{clip-path:url(#clip-path-2);}.cls-14{fill:#000d17;}.cls-15{clip-path:url(#clip-path-3);}.cls-16,.cls-20{fill:#161616;}.cls-16{opacity:0.25;}.cls-17{fill:#fbc69f;}.cls-18{fill:#5c9cff;}.cls-19{fill:#efa695;}.cls-21{opacity:0.68;fill:url(#linear-gradient);}</style><clipPath id="clip-path"><polygon class="cls-1" points="198.66 285.62 200.28 220.75 256.21 229.5 254.6 294.37 198.66 285.62"/></clipPath><clipPath id="clip-path-2"><polygon class="cls-1" points="220.5 275.01 221.44 237.05 235.09 239.19 234.14 277.14 220.5 275.01"/></clipPath><clipPath id="clip-path-3"><polygon class="cls-1" points="211.54 309.75 213.47 296.14 241.67 300.26 239.75 313.88 211.54 309.75"/></clipPath><linearGradient id="linear-gradient" x1="144.27" y1="363.02" x2="131.57" y2="347.34" gradientTransform="translate(405.15 -133.85) rotate(57.91)" gradientUnits="userSpaceOnUse"><stop offset="0" stop-color="#fbc69f"/><stop offset="0.27" stop-color="#f8c4a2"/><stop offset="0.46" stop-color="#f0c0ab"/><stop offset="0.63" stop-color="#e2b7bb"/><stop offset="0.78" stop-color="#cfacd1"/><stop offset="0.92" stop-color="#b59ded"/><stop offset="1" stop-color="#a593ff"/></linearGradient></defs><title>ilus1</title><polygon class="cls-2" points="285.53 435.66 178.49 419.19 178.49 132.47 285.53 144.17 285.53 435.66"/><polygon class="cls-3" points="178.49 92.93 285.53 103.01 433.73 89.83 331.64 79.95 178.49 92.93"/><path class="cls-4" d="M172.83,438.66c-4.94.88-8.65,4.51-8.65,8.85a7.69,7.69,0,0,0,1.13,4c8.09-.84,13.35-5.9,13.35-9.78C178.66,438.86,175.16,438.56,172.83,438.66Z"/><polygon class="cls-5" points="285.53 103.01 285.53 144.17 178.49 132.47 178.49 92.93 285.53 103.01"/><polygon class="cls-6" points="285.53 103.01 433.73 89.83 433.73 124.41 285.53 144.17 285.53 103.01"/><g class="cls-7"><g class="cls-8"><path class="cls-9" d="M370.81,65.71A12.27,12.27,0,0,0,365.17,61l.36-1.12c.27-.85.54-1.7.82-2.56A12.24,12.24,0,0,1,372,62a5.21,5.21,0,0,1,.63,4.22l-1.17,3.67A5.19,5.19,0,0,0,370.81,65.71Z"/><path class="cls-9" d="M357.28,59.59c-3.24.34-5.4,1.86-6,3.9l1.17-3.68c.65-2,2.82-3.56,6.06-3.9a15.79,15.79,0,0,1,7.89,1.38c-.4,1.23-.79,2.46-1.18,3.68A15.64,15.64,0,0,0,357.28,59.59Z"/><path class="cls-9" d="M381.4,76.17l-1.17,3.68c1.22-3.85.81-8.26-1.51-12.82l1.17-3.67C382.21,67.92,382.63,72.32,381.4,76.17Z"/><path class="cls-9" d="M372.61,66.25l-1.17,3.67c-.65,2-2.81,3.56-6.05,3.9-5.24.55-11.29-2.19-13.53-6.12a5.23,5.23,0,0,1-.63-4.21l1.17-3.68A5.23,5.23,0,0,0,353,64c2.24,3.93,8.3,6.67,13.53,6.12C369.8,69.8,372,68.28,372.61,66.25Z"/><path class="cls-9" d="M358.46,55.91c5.23-.55,11.29,2.2,13.52,6.12s-.18,7.56-5.42,8.11S355.27,68,353,64,353.22,56.46,358.46,55.91Z"/><path class="cls-9" d="M313.81,58.73,315,55.05a11.72,11.72,0,0,0-.32,1.16l-1.17,3.68C313.59,59.5,313.69,59.11,313.81,58.73Z"/><polygon class="cls-9" points="319.58 55.69 318.4 59.37 313.5 59.89 314.67 56.21 319.58 55.69"/><polygon class="cls-9" points="311.63 61.91 310.46 65.59 306.4 66.02 307.57 62.34 311.63 61.91"/><polygon class="cls-9" points="307.57 62.34 306.4 66.02 303.51 60.94 304.68 57.26 307.57 62.34"/><polygon class="cls-9" points="333.47 80.08 332.3 83.76 318.4 59.37 319.58 55.69 333.47 80.08"/><polygon class="cls-9" points="320.32 77.15 319.15 80.83 310.46 65.59 311.63 61.91 320.32 77.15"/><polygon class="cls-9" points="333.47 80.08 332.3 83.76 327.39 84.28 328.57 80.6 333.47 80.08"/><polygon class="cls-9" points="320.32 77.15 319.15 80.83 315.08 81.26 316.25 77.58 320.32 77.15"/><path class="cls-9" d="M381.4,76.17l-1.17,3.68c-2.14,6.7-9.25,11.69-19.9,12.81-10.06,1.06-21.06-1.58-29.92-6.55-1-.58-2-1.19-3-1.83l1.17-3.68c1,.64,2,1.25,3,1.83,8.86,5,19.86,7.61,29.92,6.55C372.15,87.86,379.27,82.87,381.4,76.17Z"/><polygon class="cls-9" points="331.58 82.43 330.41 86.11 328.55 86.31 329.72 82.63 331.58 82.43"/><polygon class="cls-9" points="317.42 79.62 316.24 83.29 315.08 81.26 316.25 77.58 317.42 79.62"/><path class="cls-9" d="M334.87,42.23c17.21-1.8,37.11,7.2,44.47,20.11.19.34.37.68.55,1,6.38,12.51-1.63,23.86-18.39,25.62-10.06,1.06-21.06-1.58-29.92-6.55-1-.58-2-1.19-3-1.83l4.9-.52L319.58,55.69l-4.91.52C316.32,48.93,323.63,43.42,334.87,42.23Zm31.69,27.91C371.8,69.59,374.22,66,372,62s-8.29-6.67-13.52-6.12S350.79,60.1,353,64s8.3,6.67,13.53,6.12"/><polygon class="cls-9" points="319.58 55.69 333.47 80.08 328.57 80.6 318.57 81.65 317.42 79.62 316.25 77.58 320.32 77.15 311.63 61.91 307.57 62.34 304.68 57.26 314.67 56.21 319.58 55.69"/><polygon class="cls-9" points="328.57 80.6 327.39 84.28 317.4 85.33 318.57 81.65 328.57 80.6"/><polygon class="cls-9" points="319.73 83.68 318.56 87.36 316.24 83.29 317.42 79.62 319.73 83.68"/><polygon class="cls-9" points="318.57 81.65 317.4 85.33 316.24 83.29 317.42 79.62 318.57 81.65"/><path class="cls-9" d="M382.56,78.2l-1.17,3.68c-2.14,6.7-9.25,11.7-19.9,12.82-11.24,1.18-23.65-2.26-32.94-8.39l1.17-3.68c9.29,6.13,21.7,9.57,32.94,8.39C373.31,89.9,380.42,84.91,382.56,78.2Z"/><path class="cls-9" d="M379.89,63.36c.21.33.41.67.6,1,7.36,12.91-.62,24.84-17.83,26.65-11.24,1.18-23.65-2.26-32.94-8.39l1.86-.2c8.86,5,19.86,7.61,29.92,6.55C378.26,87.22,386.27,75.87,379.89,63.36Z"/><polygon class="cls-9" points="329.72 82.63 328.55 86.31 318.56 87.36 319.73 83.68 329.72 82.63"/><path class="cls-9" d="M317.41,79.62l1.16,2,10-1.05c1,.64,2,1.25,3,1.83l-1.86.2-10,1.05Z"/><polygon class="cls-9" points="316.25 77.58 315.08 81.26 274.46 85.53 275.64 81.85 316.25 77.58"/><polygon class="cls-9" points="275.64 81.85 274.46 85.53 259.45 80.64 260.63 76.97 275.64 81.85"/><polygon class="cls-9" points="261.79 79 260.61 82.68 259.45 80.64 260.63 76.97 261.79 79"/><polygon class="cls-9" points="275.64 81.85 316.25 77.58 317.42 79.62 276.8 83.89 261.79 79 260.63 76.97 275.64 81.85"/><polygon class="cls-9" points="276.8 83.89 275.62 87.56 260.61 82.68 261.79 79 276.8 83.89"/><polygon class="cls-9" points="317.42 79.62 316.24 83.29 275.62 87.56 276.8 83.89 317.42 79.62"/><polygon class="cls-9" points="253.42 77.72 252.25 81.4 246.48 82.01 247.65 78.33 253.42 77.72"/><polygon class="cls-9" points="256.89 83.82 255.72 87.5 252.25 81.4 253.42 77.72 256.89 83.82"/><polygon class="cls-9" points="254.58 79.76 253.41 83.44 247.64 84.04 248.81 80.36 254.58 79.76"/><polygon class="cls-9" points="264.1 83.06 262.93 86.74 255.72 87.5 256.89 83.82 264.1 83.06"/><polygon class="cls-9" points="258.05 85.86 256.88 89.53 255.72 87.5 256.89 83.82 258.05 85.86"/><polygon class="cls-9" points="258.05 85.86 256.89 83.82 264.1 83.06 265.26 85.1 258.05 85.86"/><polygon class="cls-9" points="265.26 85.1 264.09 88.78 256.88 89.53 258.05 85.86 265.26 85.1"/><polygon class="cls-9" points="229.52 80.32 228.35 84 225.72 83.11 226.9 79.44 229.52 80.32"/><polygon class="cls-9" points="243.92 85.19 242.74 88.86 228.35 84 229.52 80.32 243.92 85.19"/><polygon class="cls-9" points="247.65 78.33 246.48 82.01 242.74 88.86 243.92 85.19 247.65 78.33"/><polygon class="cls-9" points="253.42 77.72 254.58 79.76 248.81 80.36 245.07 87.22 228.06 81.47 229.52 80.32 243.92 85.19 247.65 78.33 253.42 77.72"/><polygon class="cls-9" points="311.63 61.91 320.32 77.15 316.25 77.58 275.64 81.85 260.63 76.97 261.79 79 264.1 83.06 256.89 83.82 253.42 77.72 247.65 78.33 243.92 85.19 229.52 80.32 226.9 79.44 239.56 69.48 307.57 62.34 311.63 61.91"/><polygon class="cls-9" points="248.81 80.36 247.64 84.04 243.9 90.9 245.07 87.22 248.81 80.36"/><polygon class="cls-9" points="245.07 87.22 243.9 90.9 226.88 85.15 228.06 81.47 245.07 87.22"/></g></g><g class="cls-8"><path class="cls-2" d="M370.82,64.33a12.18,12.18,0,0,0-5.65-4.74l.14-.43.15-.46.15-.47.15-.48.15-.48.15-.48.15-.45.14-.43A12.26,12.26,0,0,1,372,60.65a5.18,5.18,0,0,1,.62,4.21l-1.17,3.68A5.22,5.22,0,0,0,370.82,64.33Z"/><path class="cls-2" d="M357.28,58.21c-3.24.34-5.4,1.86-6,3.89l1.17-3.67c.65-2,2.82-3.56,6.06-3.9a15.57,15.57,0,0,1,7.89,1.38c-.39,1.22-.79,2.45-1.18,3.68A15.53,15.53,0,0,0,357.28,58.21Z"/><path class="cls-10" d="M380.23,78.47c1.22-3.85.81-8.26-1.51-12.82L379.89,62c2.32,4.56,2.74,9,1.51,12.82Z"/><path class="cls-11" d="M372.61,64.86l-1.17,3.68c-.65,2-2.81,3.56-6.05,3.9-5.24.55-11.29-2.2-13.53-6.12a5.25,5.25,0,0,1-.63-4.22l1.17-3.67a5.23,5.23,0,0,0,.63,4.21c2.24,3.93,8.3,6.67,13.53,6.12C369.8,68.42,372,66.9,372.61,64.86Z"/><path class="cls-11" d="M358.46,54.53c5.23-.55,11.29,2.19,13.53,6.12s-.19,7.56-5.43,8.11S355.27,66.57,353,62.64,353.22,55.08,358.46,54.53Z"/><path class="cls-2" d="M313.81,57.34,315,53.66a11.72,11.72,0,0,0-.32,1.16L313.5,58.5C313.59,58.11,313.69,57.72,313.81,57.34Z"/><polygon class="cls-2" points="319.58 54.31 318.4 57.98 313.5 58.5 314.67 54.82 319.58 54.31"/><polygon class="cls-2" points="311.64 60.53 310.46 64.21 306.4 64.64 307.57 60.96 311.64 60.53"/><polygon class="cls-2" points="307.57 60.96 306.4 64.64 303.51 59.55 304.68 55.87 307.57 60.96"/><polygon class="cls-2" points="333.47 78.7 332.3 82.38 318.4 57.98 319.58 54.31 333.47 78.7"/><polygon class="cls-2" points="320.32 75.78 319.15 79.45 310.46 64.21 311.64 60.53 320.32 75.78"/><polygon class="cls-2" points="333.47 78.7 332.3 82.38 327.39 82.89 328.57 79.22 333.47 78.7"/><polygon class="cls-2" points="320.32 75.78 319.15 79.45 315.09 79.88 316.26 76.2 320.32 75.78"/><path class="cls-2" d="M381.4,74.79l-1.17,3.68c-2.14,6.7-9.25,11.69-19.89,12.81-10.07,1.06-21.06-1.59-29.92-6.55-1-.58-2.05-1.19-3-1.84l1.18-3.68c1,.65,2,1.26,3,1.84,8.86,5,19.85,7.61,29.92,6.55C372.15,86.48,379.27,81.49,381.4,74.79Z"/><polygon class="cls-10" points="331.59 81.05 330.42 84.73 328.56 84.93 329.73 81.25 331.59 81.05"/><polygon class="cls-2" points="317.42 78.23 316.24 81.91 315.09 79.88 316.26 76.2 317.42 78.23"/><polygon class="cls-2" points="328.57 79.22 327.39 82.89 317.4 83.94 318.57 80.27 328.57 79.22"/><path class="cls-10" d="M382.56,76.82l-1.17,3.68c-2.14,6.7-9.25,11.69-19.9,12.81-11.24,1.18-23.64-2.25-32.94-8.38l1.18-3.68c9.29,6.13,21.69,9.56,32.93,8.38C373.31,88.51,380.43,83.52,382.56,76.82Z"/><path class="cls-10" d="M379.89,62c.21.34.41.68.61,1,7.35,12.9-.63,24.83-17.84,26.64-11.24,1.18-23.64-2.25-32.93-8.38l1.86-.2c8.86,5,19.85,7.61,29.92,6.55C378.26,85.84,386.26,74.48,379.89,62Z"/><path class="cls-2" d="M334.87,40.85C352.08,39,372,48,379.34,61c.19.34.38.68.55,1,6.37,12.51-1.63,23.87-18.38,25.63-10.07,1.06-21.06-1.58-29.92-6.55-1-.58-2-1.19-3-1.84l4.9-.51L319.58,54.31l-4.91.51C316.32,47.54,323.63,42,334.87,40.85Zm31.69,27.91c5.24-.55,7.66-4.19,5.43-8.11s-8.3-6.67-13.53-6.12-7.67,4.18-5.43,8.11,8.3,6.67,13.53,6.12"/><polygon class="cls-2" points="319.58 54.31 333.47 78.7 328.57 79.22 318.57 80.27 317.42 78.23 316.26 76.2 320.32 75.78 311.64 60.53 307.57 60.96 304.68 55.87 314.67 54.82 319.58 54.31"/><polygon class="cls-10" points="319.73 82.3 318.56 85.98 316.24 81.91 317.42 78.23 319.73 82.3"/><polygon class="cls-2" points="318.57 80.27 317.4 83.94 316.24 81.91 317.42 78.23 318.57 80.27"/><polygon class="cls-10" points="329.73 81.25 328.56 84.93 318.56 85.98 319.73 82.3 329.73 81.25"/><path class="cls-10" d="M317.41,78.23l1.16,2,10-1.05c1,.65,2,1.26,3,1.84l-1.86.2-10,1Z"/><polygon class="cls-2" points="316.26 76.2 315.09 79.88 274.47 84.15 275.64 80.47 316.26 76.2"/><polygon class="cls-2" points="275.64 80.47 274.47 84.15 259.46 79.26 260.63 75.58 275.64 80.47"/><polygon class="cls-10" points="261.79 77.61 260.61 81.29 259.46 79.26 260.63 75.58 261.79 77.61"/><polygon class="cls-10" points="275.64 80.47 316.26 76.2 317.42 78.23 276.8 82.5 261.79 77.61 260.63 75.58 275.64 80.47"/><polygon class="cls-10" points="276.8 82.5 275.62 86.18 260.61 81.29 261.79 77.61 276.8 82.5"/><polygon class="cls-10" points="317.42 78.23 316.24 81.91 275.62 86.18 276.8 82.5 317.42 78.23"/><polygon class="cls-2" points="253.42 76.34 252.25 80.02 246.48 80.63 247.65 76.95 253.42 76.34"/><polygon class="cls-2" points="256.9 82.44 255.72 86.12 252.25 80.02 253.42 76.34 256.9 82.44"/><polygon class="cls-10" points="254.58 78.37 253.41 82.05 247.64 82.66 248.81 78.98 254.58 78.37"/><polygon class="cls-2" points="264.1 81.68 262.93 85.36 255.72 86.12 256.9 82.44 264.1 81.68"/><polygon class="cls-10" points="258.05 84.47 256.88 88.15 255.72 86.12 256.9 82.44 258.05 84.47"/><polygon class="cls-10" points="258.05 84.47 256.9 82.44 264.1 81.68 265.26 83.71 258.05 84.47"/><polygon class="cls-10" points="265.26 83.71 264.09 87.39 256.88 88.15 258.05 84.47 265.26 83.71"/><polygon class="cls-2" points="229.52 78.94 228.34 82.61 225.72 81.73 226.9 78.05 229.52 78.94"/><polygon class="cls-2" points="243.92 83.81 242.75 87.48 228.34 82.61 229.52 78.94 243.92 83.81"/><polygon class="cls-2" points="247.65 76.95 246.48 80.63 242.75 87.48 243.92 83.81 247.65 76.95"/><polygon class="cls-2" points="311.64 60.53 320.32 75.78 316.26 76.2 275.64 80.47 260.63 75.58 261.79 77.61 264.1 81.68 256.9 82.44 253.42 76.34 247.65 76.95 243.92 83.81 229.52 78.94 226.9 78.05 239.56 68.11 307.57 60.96 311.64 60.53"/><polygon class="cls-10" points="248.81 78.98 247.64 82.66 243.9 89.51 245.07 85.83 248.81 78.98"/><polygon class="cls-10" points="245.07 85.83 243.9 89.51 226.88 83.76 228.06 80.08 245.07 85.83"/><polygon class="cls-10" points="253.42 76.34 254.58 78.37 248.81 78.98 245.07 85.83 228.06 80.08 229.52 78.94 243.92 83.81 247.65 76.95 253.42 76.34"/></g><g class="cls-8"><g class="cls-12"><path class="cls-10" d="M228.24,225.12c-15.44-2.41-28.33,10.15-28.77,28.07s11.71,34.39,27.15,36.8,28.34-10.15,28.79-28.05-11.72-34.4-27.17-36.82"/></g></g><g class="cls-8"><g class="cls-13"><polyline points="235.09 239.19 221.44 237.05 220.5 275.01 234.14 277.14 234.6 258.62 234.73 253.52 234.85 248.87 234.96 244.47 235.09 239.19"/></g></g><polygon class="cls-14" points="433.73 124.41 433.73 383.89 285.53 435.66 285.53 144.17 433.73 124.41"/><g class="cls-8"><g class="cls-15"><path class="cls-10" d="M214.25,307.65a1.25,1.25,0,0,0-.36,2.45,1.12,1.12,0,0,0,1.27-1.05,1.14,1.14,0,0,0-.91-1.4m1.86-11.12a4.6,4.6,0,0,0-2.75.39l.26,1.3a3.19,3.19,0,0,1,1.95-.34,1.61,1.61,0,0,1,1.52,1.94,4.36,4.36,0,0,1-1.67,2.49,4.65,4.65,0,0,0-1.62,3.22l0,.51,1.44.21.05-.51a4,4,0,0,1,1.47-2.72,5.47,5.47,0,0,0,2.06-3.17,2.83,2.83,0,0,0-2.67-3.32"/><path class="cls-10" d="M221.74,308.75a1.24,1.24,0,1,0,.92,1.39,1.12,1.12,0,0,0-.92-1.39m1.86-11.13a4.79,4.79,0,0,0-2.75.39l.27,1.3a3.18,3.18,0,0,1,1.95-.33,1.6,1.6,0,0,1,1.51,1.93,4.41,4.41,0,0,1-1.67,2.5,4.69,4.69,0,0,0-1.62,3.21l0,.52,1.43.21.06-.51a4,4,0,0,1,1.46-2.73,5.42,5.42,0,0,0,2.07-3.17,2.84,2.84,0,0,0-2.68-3.32"/><path class="cls-10" d="M229.24,309.84a1.25,1.25,0,0,0-.37,2.45,1.12,1.12,0,0,0,1.28-1.05,1.14,1.14,0,0,0-.91-1.4m1.85-11.12a4.58,4.58,0,0,0-2.74.39l.26,1.3a3.12,3.12,0,0,1,1.95-.33,1.6,1.6,0,0,1,1.52,1.93,4.36,4.36,0,0,1-1.67,2.49,4.71,4.71,0,0,0-1.63,3.22l0,.51,1.43.21.06-.51a4.05,4.05,0,0,1,1.46-2.72,5.41,5.41,0,0,0,2.07-3.17,2.84,2.84,0,0,0-2.68-3.32"/><path class="cls-10" d="M236.73,310.94a1.12,1.12,0,0,0-1.28,1.07,1.15,1.15,0,0,0,.92,1.38,1.25,1.25,0,0,0,.36-2.45m1.86-11.13a4.77,4.77,0,0,0-2.75.39l.27,1.31a3.14,3.14,0,0,1,1.94-.34,1.61,1.61,0,0,1,1.52,1.93,4.35,4.35,0,0,1-1.67,2.5,4.65,4.65,0,0,0-1.62,3.22l0,.51,1.43.21.06-.51a4,4,0,0,1,1.46-2.72,5.48,5.48,0,0,0,2.07-3.18,2.84,2.84,0,0,0-2.68-3.32"/></g></g><rect class="cls-2" x="302.59" y="232.04" width="9.17" height="51.03"/><ellipse class="cls-16" cx="151.01" cy="446.8" rx="43.26" ry="16.83"/><path class="cls-17" d="M121.4,323.38c-.43-1.59-6.06-3.48-5.76-8.68s-.38-20.36-.38-20.36l-10,1s-.61,10.4.68,15.17,6.31,17.06,9.48,16.2A17.13,17.13,0,0,0,121.4,323.38Z"/><path class="cls-18" d="M121.93,207.65c3.13.48,8.55,4.78,7.58,7.79-3.91,12.1-12.81,38.78-13.16,42.4-1.23,12.76-.55,25.89-.35,38.78a5.1,5.1,0,0,1-5,5.16h-.32a5.08,5.08,0,0,1-5.11-4.43c-1.73-13.48-4.79-26.56-2.92-40.27,1.22-9,4.55-19,7.55-27.59.45-1.29,4.59-12.25,6.77-18.71.8-2.35,5.92-2.41,8.37-2Z"/><path class="cls-14" d="M127,438.05l19.37-7.65s7.62-41.65,7.35-46.58-3.32-60.84-1.85-64.22.47-14,.47-14L118.09,305s7.45,45.77,9.81,58.84a224.1,224.1,0,0,1,3,24.57Z"/><polygon class="cls-19" points="130.55 186.58 116.09 208.9 129.6 222.51 137.59 209.6 132.47 184.67 130.55 186.58"/><path class="cls-5" d="M115.22,207s-2.51,44.66-1.34,66,3.44,32.79,3.44,32.79l38,1.23s.48-21.47-.24-34.62S142,213.77,138.51,210.66s-22.83-5.35-20.09-5.5A5.73,5.73,0,0,0,115.22,207Z"/><path class="cls-20" d="M148.94,177.57s1.05-4.44,5.7-9.39,5.85-4.37,5.85-4.37"/><path class="cls-5" d="M169.47,438.62s7.77-1.85,8,2.4-5.74,10.26-15.15,10.77-31.47.3-34.76-2.36-.85-15.58-.85-15.58,9.85.26,12.41-.58,7.68-6.2,7.68-6.2S155.34,439.39,169.47,438.62Z"/><polygon class="cls-17" points="132.44 150.41 141.03 147.46 133.63 144.62 132.44 150.41"/><path class="cls-6" d="M141.43,431.94l-1.1,1s4.49,4.19,9.52,5.71,8,.51,9.09,0a2.51,2.51,0,0,0,1.33-1.39l0,0a30.81,30.81,0,0,1-13.44-10.16A48.88,48.88,0,0,1,141.43,431.94Z"/><path class="cls-17" d="M149,337.61c-.21-1.64,4.28-5.52,2-10.22s-7.36-19-7.36-19l9.6-2.86s4.5,9.39,5.11,14.29.62,18.18-2.64,18.59A17.05,17.05,0,0,1,149,337.61Z"/><path class="cls-18" d="M129.34,217.88c3.11-.56,9.63,1.72,9.7,4.88.28,12.71.61,40.84,1.47,44.37,3,12.46,8,24.64,12.38,36.76a5.11,5.11,0,0,1-3.09,6.53l-.3.1a5.09,5.09,0,0,1-6.28-2.51c-6.05-12.17-13.23-23.53-16-37.08-1.79-8.91-1.94-19.49-1.91-28.55,0-1.37.32-13.08.27-19.89,0-2.49,4.8-4.22,7.24-4.67Z"/><path class="cls-17" d="M133.35,191.56c-1.27,10.88,3.22,21.28,11.7,29.26,1.48,1.39,5.71,6.32,7.54,7.18,17.15,8.05,27.78-8.79,30.58-14.75s4.11-12.63,5.51-15.61,11.1-29.36,11.1-29.36l-33.52-15.87L131,157.7c-.26,0-1,2.4-1,2.65l-2.54,6.42-3.28,8.28c-.92,2.33-2.45,4.53-2.43,7.11a14.06,14.06,0,0,0,2,7,4.44,4.44,0,0,0,.77,1C125.27,190.75,133.25,192.41,133.35,191.56Z"/><polygon class="cls-21" points="165.27 156.83 198.85 171.2 190.99 186.97 157.07 169.47 165.27 156.83"/><circle class="cls-20" cx="179.27" cy="189.64" r="3.54"/><path class="cls-20" d="M172.49,188c2-2,4.86-5.56,8.64-4.83,1.36.26,4.17,1.66,5.51,1.75-1.42-.69-4-2.51-5.31-3.29a8.06,8.06,0,0,0-3.66-1.29C174,180.17,173,185.65,172.49,188Z"/><path class="cls-20" d="M146.64,171.92a4.39,4.39,0,0,1,.41,1.72,19.8,19.8,0,0,1-1.05,4.52,2.52,2.52,0,0,0,3.5,3,24.88,24.88,0,0,0,4.8-3c3.93-3.27,8.58-18.83,14.73-18.1,5.17.61,29.75,14.11,35.62,13.23,3.46-.52,8.54-7.19,12.15-12.6a2.51,2.51,0,0,0-2.62-3.84,12.57,12.57,0,0,1-10-2c-13.51-9.32-25.07-33-44.27-29.56-15.47,2.77-26,16.5-32.27,29.86-9.8,20.87-9,35-6.73,35.4,7,1.21,5.06-2.14,5-7.76-.08-6.67,3-13.12,10.2-14.46C139.57,167.73,145.08,168.66,146.64,171.92Z"/></svg>