<svg id="Layer_Tengah" data-name="Layer Tengah" xmlns="http://www.w3.org/2000/svg" viewBox="0 0 460.8 259.2"><defs><style>.cls-1{fill:#074a66;}.cls-2{fill:#1481c6;}.cls-2,.cls-3,.cls-4{fill-rule:evenodd;}.cls-3{fill:#f6d82d;}.cls-4{fill:#fff84c;}</style></defs><title>l2</title><polygon class="cls-1" points="394.87 239.4 394.86 239.4 394.87 239.41 394.87 239.4"/><path class="cls-1" d="M355.74,259.59c13.27-9.82,26.31-16.49,39.12-20.19a42.71,42.71,0,0,0-73.59,20.19Z"/><path class="cls-2" d="M454.13,244.12q-85.1,19.25-70.64-13.68a37.18,37.18,0,0,1,70.64,13.68Z"/><path class="cls-3" d="M263,259.2V235.48a10,10,0,0,0,5-8.64V188.38a10,10,0,0,0-10-10h-4.25a10,10,0,0,0-10,10v10.83a24.12,24.12,0,0,0-2.69-.16H230.41a15.61,15.61,0,0,0-15.19-12.18h-6.6A15.59,15.59,0,0,0,193,202.45V214h-5.6a10,10,0,0,0-8.64-5H140.34a10,10,0,0,0-10,10v4.24a10,10,0,0,0,10,10h10.83a24,24,0,0,0-.16,2.68v10.66a15.62,15.62,0,0,0-12,12.61Z"/><path class="cls-2" d="M134.23,259.2V248a10,10,0,0,1-5-8.65V200.94a10,10,0,0,1,10-10h4.24a10,10,0,0,1,10,10v10.83a22,22,0,0,1,2.69-.17h10.65A15.63,15.63,0,0,1,182,199.47h6.6A15.6,15.6,0,0,1,204.18,215v11.52h5.6a10,10,0,0,1,8.64-5h38.46a10,10,0,0,1,10,10v4.25a10,10,0,0,1-10,10H246.05a22,22,0,0,1,.16,2.69v10.65l.25.06Z"/><path class="cls-2" d="M269.35,157.81h44a14,14,0,0,1,14,14v85.5a13.34,13.34,0,0,1-.13,1.89H255.48a15,15,0,0,1-.13-1.89v-85.5a14,14,0,0,1,14-14Z"/><path class="cls-4" d="M363,240.54h27.6c2-2.24,5.69-3.75,9.91-3.75h44.07c6.31,0,11.47,3.38,11.47,7.52v3.19c0,4.13-5.16,7.52-11.47,7.52H432.17a11.2,11.2,0,0,1,.19,2v2.16H320.47c2.81-4.06,9-6.9,16.26-6.9h2.17C342,245.51,351.67,240.54,363,240.54Z"/><path class="cls-2" d="M460.8,234.23h-21a11.74,11.74,0,0,0-11.7,11.7v.88h-5.71a12.63,12.63,0,0,0-1.63-.11H400.17a11.73,11.73,0,0,0-11.7,11.69v.82H460.8Z"/><rect class="cls-1" x="265.11" y="201.31" width="9.75" height="24.75"/><rect class="cls-1" x="283.11" y="201.31" width="9.75" height="24.75"/><rect class="cls-1" x="265.11" y="171.31" width="9.75" height="24.75"/><rect class="cls-1" x="283.11" y="171.31" width="9.75" height="24.75"/><rect class="cls-1" x="301.11" y="171.31" width="9.75" height="24.75"/><path class="cls-1" d="M164.07,260.18c0-.33,0-.66,0-1h0a24.94,24.94,0,0,0-24.94-24.94H24.94A24.94,24.94,0,0,0,0,259.18H0c0,.34,0,.67,0,1Z"/></svg>